<mxfile host="app.diagrams.net" modified="2023-05-26T01:02:18.826Z" agent="Mozilla/5.0 (Windows NT 10.0; Win64; x64) AppleWebKit/537.36 (KHTML, like Gecko) Chrome/113.0.0.0 Safari/537.36" etag="Ge9bXTS2op0OjIGYrzlf" version="21.3.2" type="device">
  <diagram name="페이지-1" id="p2t1tF4bAjRibHpAxog7">
    <mxGraphModel dx="794" dy="424" grid="1" gridSize="10" guides="1" tooltips="1" connect="1" arrows="1" fold="1" page="1" pageScale="1" pageWidth="4681" pageHeight="3300" background="none" math="0" shadow="1">
      <root>
        <mxCell id="0" />
        <mxCell id="1" parent="0" />
        <mxCell id="XN59Y2BQgyfYHBsIAZ20-14" style="shape=connector;rounded=0;orthogonalLoop=1;jettySize=auto;html=1;entryX=0.5;entryY=0;entryDx=0;entryDy=0;labelBackgroundColor=default;strokeColor=default;fontFamily=Helvetica;fontSize=11;fontColor=default;endArrow=classic;exitX=0.5;exitY=1;exitDx=0;exitDy=0;" edge="1" parent="1" source="XN59Y2BQgyfYHBsIAZ20-1" target="XN59Y2BQgyfYHBsIAZ20-2">
          <mxGeometry relative="1" as="geometry" />
        </mxCell>
        <mxCell id="XN59Y2BQgyfYHBsIAZ20-15" style="edgeStyle=none;shape=connector;rounded=0;orthogonalLoop=1;jettySize=auto;html=1;entryX=0.5;entryY=0;entryDx=0;entryDy=0;labelBackgroundColor=default;strokeColor=default;fontFamily=Helvetica;fontSize=11;fontColor=default;endArrow=classic;exitX=0.5;exitY=1;exitDx=0;exitDy=0;" edge="1" parent="1" source="XN59Y2BQgyfYHBsIAZ20-1" target="XN59Y2BQgyfYHBsIAZ20-3">
          <mxGeometry relative="1" as="geometry" />
        </mxCell>
        <mxCell id="XN59Y2BQgyfYHBsIAZ20-16" style="edgeStyle=none;shape=connector;rounded=0;orthogonalLoop=1;jettySize=auto;html=1;entryX=0.5;entryY=0;entryDx=0;entryDy=0;labelBackgroundColor=default;strokeColor=default;fontFamily=Helvetica;fontSize=11;fontColor=default;endArrow=classic;" edge="1" parent="1" source="XN59Y2BQgyfYHBsIAZ20-1" target="XN59Y2BQgyfYHBsIAZ20-4">
          <mxGeometry relative="1" as="geometry" />
        </mxCell>
        <mxCell id="XN59Y2BQgyfYHBsIAZ20-17" style="edgeStyle=none;shape=connector;rounded=0;orthogonalLoop=1;jettySize=auto;html=1;entryX=0.5;entryY=0;entryDx=0;entryDy=0;labelBackgroundColor=default;strokeColor=default;fontFamily=Helvetica;fontSize=11;fontColor=default;endArrow=classic;exitX=0.5;exitY=1;exitDx=0;exitDy=0;" edge="1" parent="1" source="XN59Y2BQgyfYHBsIAZ20-1" target="XN59Y2BQgyfYHBsIAZ20-5">
          <mxGeometry relative="1" as="geometry" />
        </mxCell>
        <mxCell id="XN59Y2BQgyfYHBsIAZ20-18" style="edgeStyle=none;shape=connector;rounded=0;orthogonalLoop=1;jettySize=auto;html=1;entryX=0.5;entryY=0;entryDx=0;entryDy=0;labelBackgroundColor=default;strokeColor=default;fontFamily=Helvetica;fontSize=11;fontColor=default;endArrow=classic;exitX=0.5;exitY=1;exitDx=0;exitDy=0;" edge="1" parent="1" source="XN59Y2BQgyfYHBsIAZ20-1" target="XN59Y2BQgyfYHBsIAZ20-6">
          <mxGeometry relative="1" as="geometry" />
        </mxCell>
        <mxCell id="XN59Y2BQgyfYHBsIAZ20-1" value="학생정보" style="rounded=1;arcSize=10;whiteSpace=wrap;html=1;align=center;" vertex="1" parent="1">
          <mxGeometry x="350" y="160" width="100" height="40" as="geometry" />
        </mxCell>
        <mxCell id="XN59Y2BQgyfYHBsIAZ20-2" value="학번" style="ellipse;whiteSpace=wrap;html=1;align=center;fontStyle=4;" vertex="1" parent="1">
          <mxGeometry x="120" y="290" width="100" height="40" as="geometry" />
        </mxCell>
        <mxCell id="XN59Y2BQgyfYHBsIAZ20-3" value="이름" style="ellipse;whiteSpace=wrap;html=1;align=center;" vertex="1" parent="1">
          <mxGeometry x="240" y="290" width="100" height="40" as="geometry" />
        </mxCell>
        <mxCell id="XN59Y2BQgyfYHBsIAZ20-4" value="학과" style="ellipse;whiteSpace=wrap;html=1;align=center;" vertex="1" parent="1">
          <mxGeometry x="360" y="290" width="100" height="40" as="geometry" />
        </mxCell>
        <mxCell id="XN59Y2BQgyfYHBsIAZ20-5" value="학년" style="ellipse;whiteSpace=wrap;html=1;align=center;" vertex="1" parent="1">
          <mxGeometry x="480" y="290" width="100" height="40" as="geometry" />
        </mxCell>
        <mxCell id="XN59Y2BQgyfYHBsIAZ20-6" value="전화번호" style="ellipse;whiteSpace=wrap;html=1;align=center;" vertex="1" parent="1">
          <mxGeometry x="600" y="290" width="100" height="40" as="geometry" />
        </mxCell>
      </root>
    </mxGraphModel>
  </diagram>
</mxfile>
